<svg width="256" height="256" viewBox="0 0 256 256" fill="none" xmlns="http://www.w3.org/2000/svg">
<g clip-path="url(#clip0_101_4)">
<path d="M119.665 0.566585L119.662 0.566849C119.532 0.57864 119.333 0.597674 119.083 0.621523C118.288 0.697401 116.982 0.822018 115.78 0.917401C79.5679 4.18256 45.642 23.7214 24.1548 53.7541L24.1546 53.7544C12.189 70.454 4.53726 89.3946 1.64601 109.456L1.64588 109.457C0.624346 116.457 0.5 118.508 0.5 128.025C0.5 137.542 0.624346 139.593 1.64588 146.594L1.64596 146.594C8.57528 194.468 42.6504 234.696 88.8651 249.6C97.1372 252.267 105.862 254.086 115.793 255.184C117.7 255.393 122.832 255.5 128 255.5C133.169 255.5 138.301 255.393 140.208 255.184M119.665 0.566585L140.262 255.681M119.665 0.566585C120.668 0.469957 125.283 0.487213 129.997 0.562571C134.701 0.63778 139.406 0.769087 140.583 0.891252L119.665 0.566585ZM140.208 255.184L140.262 255.681M140.208 255.184C140.207 255.184 140.207 255.184 140.207 255.184L140.262 255.681M140.208 255.184C157.344 253.288 171.848 249.051 186.154 241.75M140.262 255.681C157.454 253.779 172.018 249.526 186.382 242.195M186.154 241.75L186.382 242.195M186.154 241.75C187.232 241.199 187.846 240.864 188.163 240.643M186.154 241.75C186.154 241.75 186.155 241.75 186.155 241.75L186.382 242.195M186.382 242.195L188.163 240.643M95.8956 109.534C96.0345 109.541 96.1443 109.488 96.216 109.435C96.266 109.506 96.3222 109.585 96.3845 109.674C96.3833 109.715 96.3822 109.758 96.3811 109.803C96.3761 110.004 96.3711 110.244 96.3661 110.522C96.2568 110.364 96.1574 110.222 96.0684 110.094C95.9993 109.996 95.9366 109.906 95.8804 109.826C95.883 109.718 95.8857 109.621 95.8883 109.534H95.8956ZM95.8956 109.534H95.9187C95.9093 109.533 95.8991 109.532 95.8884 109.531C95.8884 109.532 95.8883 109.533 95.8883 109.534C95.8907 109.534 95.8932 109.534 95.8956 109.534ZM188.163 240.643C188.167 240.648 188.17 240.652 188.174 240.657C188.216 240.71 188.252 240.755 188.28 240.788C188.294 240.805 188.308 240.822 188.322 240.837L188.323 240.838C188.328 240.844 188.353 240.872 188.388 240.901C188.385 240.898 188.376 240.89 188.365 240.876C188.351 240.859 188.332 240.831 188.317 240.791C188.282 240.697 188.293 240.605 188.317 240.544C188.324 240.526 188.331 240.514 188.336 240.506C188.344 240.494 188.345 240.495 188.33 240.511C188.308 240.533 188.266 240.57 188.192 240.622C188.183 240.629 188.173 240.636 188.163 240.643ZM96.1122 81.7993C96.1109 81.7978 96.1095 81.7964 96.1082 81.795L95.7435 82.137L96.1126 81.7997C96.1124 81.7995 96.1123 81.7994 96.1122 81.7993ZM96.1122 81.7993C96.1492 81.8397 96.1922 81.8986 96.2226 81.9405C96.2632 81.9963 96.3159 82.0709 96.3798 82.1626C96.5079 82.3464 96.6858 82.6059 96.9102 82.9361C97.3593 83.597 97.9982 84.5465 98.8056 85.7523C100.421 88.1641 102.712 91.6044 105.51 95.8191C111.106 104.249 118.733 115.777 127.041 128.376C143.657 153.571 166.379 187.974 177.54 204.863L177.54 204.864L197.535 235.148M96.1122 81.7993L197.535 235.148M197.535 235.148L197.118 235.422L197.393 235.84L197.81 235.564L197.535 235.148ZM121.33 147.246L121.744 146.966L121.33 147.246L121.33 147.246ZM80.4563 82.2593L80.854 82.5623L80.4626 82.2511L80.4596 82.2549C80.4585 82.2564 80.4574 82.2578 80.4563 82.2593ZM174.252 171.609L175.168 173.013L175.171 171.337L175.246 126.35C175.271 110.674 175.271 99.3571 175.24 91.8774C175.224 88.1379 175.2 85.3556 175.168 83.4667C175.152 82.5227 175.134 81.7988 175.113 81.289C175.103 81.0345 175.092 80.8293 175.079 80.6749C175.069 80.5466 175.055 80.3976 175.024 80.2937C174.634 78.9547 173.563 77.6996 172.249 77.0398C171.772 76.7803 171.336 76.6401 170.554 76.5663C169.797 76.4947 168.682 76.4827 166.838 76.4827C164.884 76.4827 163.776 76.4945 163.03 76.5764C162.241 76.6629 161.832 76.8307 161.28 77.1132L161.28 77.113L161.27 77.1185C159.945 77.8361 158.985 79.0491 158.549 80.5732L158.549 80.5732L158.546 80.5847C158.523 80.6735 158.512 80.8023 158.504 80.9146C158.494 81.0461 158.485 81.2196 158.477 81.4325C158.459 81.8589 158.443 82.457 158.428 83.2209C158.397 84.7494 158.371 86.9521 158.349 89.7958C158.305 95.4836 158.28 103.742 158.28 114.314V147.016V147.165L158.362 147.29L166.319 159.449L166.32 159.45L174.252 171.609ZM188.709 240.518L188.389 240.902C188.395 240.907 188.402 240.913 188.409 240.918L188.709 240.518Z" fill="white" stroke="#0D0C0C"/>
</g>
<defs>
<clipPath id="clip0_101_4">
<rect width="256" height="256" fill="white"/>
</clipPath>
</defs>
</svg>
